<svg xmlns="http://www.w3.org/2000/svg" viewBox="0 0 400 400" width="400" height="400"><rect width="400" height="400" fill="#463936"/>
  <g transform="rotate(-45 200 200)">
    <rect x="-66.66666666666667" y="-50" width="33.333333333333336" height="500" fill="#463936" opacity="0.85"/>
    <rect x="-33.333333333333336" y="-50" width="33.333333333333336" height="500" fill="#4d491f" opacity="0.45"/>
    <rect x="0" y="-50" width="33.333333333333336" height="500" fill="#4c4f2c" opacity="0.47"/>
    <rect x="33.33333333333333" y="-50" width="33.333333333333336" height="500" fill="#1f4322" opacity="0.4"/>
    <rect x="66.66666666666667" y="-50" width="33.333333333333336" height="500" fill="#b89f97" opacity="0.79"/>
    <rect x="100.00000000000001" y="-50" width="33.333333333333336" height="500" fill="#463936" opacity="0.95"/>
    <rect x="133.33333333333331" y="-50" width="33.333333333333336" height="500" fill="#4d491f" opacity="0.44"/>
    <rect x="166.66666666666669" y="-50" width="33.333333333333336" height="500" fill="#4c4f2c" opacity="0.95"/>
    <rect x="200" y="-50" width="33.333333333333336" height="500" fill="#1f4322" opacity="0.81"/>
    <rect x="233.33333333333331" y="-50" width="33.333333333333336" height="500" fill="#b89f97" opacity="0.86"/>
    <rect x="266.6666666666667" y="-50" width="33.333333333333336" height="500" fill="#463936" opacity="0.84"/>
    <rect x="300" y="-50" width="33.333333333333336" height="500" fill="#4d491f" opacity="0.61"/>
    <rect x="333.3333333333333" y="-50" width="33.333333333333336" height="500" fill="#4c4f2c" opacity="0.44"/>
    <rect x="366.6666666666667" y="-50" width="33.333333333333336" height="500" fill="#1f4322" opacity="0.43"/>
    <rect x="400" y="-50" width="33.333333333333336" height="500" fill="#b89f97" opacity="0.79"/>
    <rect x="433.33333333333337" y="-50" width="33.333333333333336" height="500" fill="#463936" opacity="0.85"/>
  </g>
</svg>