<svg xmlns="http://www.w3.org/2000/svg" viewBox="0 0 400 400" width="400" height="400">
  <defs>
    <linearGradient id="sd23" x1="0" y1="0" x2="0" y2="1">
      <stop offset="0%" stop-color="#6a5fae"/>
      <stop offset="100%" stop-color="#915b4a"/>
    </linearGradient>
  </defs>
  <rect width="400" height="400" fill="url(#sd23)"/>
  <circle cx="164" cy="378" r="14.65" fill="#009f8b" opacity="0.33"/>
  <circle cx="287" cy="189" r="9.51" fill="#6a5fae" opacity="0.75"/>
  <circle cx="84" cy="296" r="6.03" fill="#915b4a" opacity="0.78"/>
  <circle cx="303" cy="155" r="4.96" fill="#6a5fae" opacity="0.22"/>
  <circle cx="26" cy="200" r="14.08" fill="#009f8b" opacity="0.28"/>
  <circle cx="110" cy="332" r="18.48" fill="#a4aaf4" opacity="0.78"/>
  <circle cx="262" cy="318" r="8.47" fill="#915b4a" opacity="0.8"/>
  <circle cx="179" cy="89" r="9.32" fill="#915b4a" opacity="0.43"/>
  <circle cx="247" cy="93" r="17.82" fill="#a4aaf4" opacity="0.74"/>
  <circle cx="200" cy="349" r="6.75" fill="#6a5fae" opacity="0.7"/>
  <circle cx="149" cy="142" r="16.42" fill="#a4aaf4" opacity="0.7"/>
  <circle cx="254" cy="142" r="18.44" fill="#6a5fae" opacity="0.35"/>
  <circle cx="108" cy="242" r="16.24" fill="#7c4a35" opacity="0.72"/>
  <circle cx="88" cy="361" r="20.37" fill="#915b4a" opacity="0.87"/>
  <circle cx="328" cy="20" r="21.86" fill="#6a5fae" opacity="0.57"/>
  <circle cx="294" cy="257" r="13.58" fill="#009f8b" opacity="0.78"/>
  <circle cx="373" cy="62" r="12.86" fill="#6a5fae" opacity="0.73"/>
  <circle cx="399" cy="73" r="13.08" fill="#009f8b" opacity="0.89"/>
  <circle cx="4" cy="370" r="3.37" fill="#6a5fae" opacity="0.77"/>
  <circle cx="58" cy="48" r="4.04" fill="#009f8b" opacity="0.68"/>
  <circle cx="173" cy="295" r="20.87" fill="#009f8b" opacity="0.59"/>
  <circle cx="390" cy="202" r="20.42" fill="#915b4a" opacity="0.77"/>
  <circle cx="177" cy="282" r="24.88" fill="#009f8b" opacity="0.41"/>
  <circle cx="23" cy="348" r="8.6" fill="#a4aaf4" opacity="0.67"/>
</svg>