<svg xmlns="http://www.w3.org/2000/svg" viewBox="0 0 400 400" width="400" height="400"><rect width="400" height="400" fill="#639c65"/>
  <rect x="20" y="0" width="20" height="20" fill="#001d00" opacity="0.46"/>
  <rect x="100" y="0" width="20" height="20" fill="#001d00" opacity="0.1"/>
  <rect x="140" y="0" width="20" height="20" fill="#0d3100" opacity="0.18"/>
  <rect x="200" y="0" width="20" height="20" fill="#639c65" opacity="0.42"/>
  <rect x="260" y="0" width="20" height="20" fill="#244427" opacity="0.24"/>
  <rect x="280" y="0" width="20" height="20" fill="#244427" opacity="0.48"/>
  <rect x="380" y="0" width="20" height="20" fill="#639c65" opacity="0.37"/>
  <rect x="0" y="20" width="20" height="20" fill="#222b00" opacity="0.53"/>
  <rect x="100" y="20" width="20" height="20" fill="#0d3100" opacity="0.47"/>
  <rect x="140" y="20" width="20" height="20" fill="#222b00" opacity="0.5"/>
  <rect x="220" y="20" width="20" height="20" fill="#639c65" opacity="0.55"/>
  <rect x="300" y="20" width="20" height="20" fill="#244427" opacity="0.18"/>
  <rect x="320" y="20" width="20" height="20" fill="#222b00" opacity="0.13"/>
  <rect x="100" y="40" width="20" height="20" fill="#244427" opacity="0.47"/>
  <rect x="140" y="40" width="20" height="20" fill="#222b00" opacity="0.54"/>
  <rect x="220" y="40" width="20" height="20" fill="#0d3100" opacity="0.42"/>
  <rect x="260" y="40" width="20" height="20" fill="#222b00" opacity="0.28"/>
  <rect x="280" y="40" width="20" height="20" fill="#244427" opacity="0.47"/>
  <rect x="380" y="40" width="20" height="20" fill="#001d00" opacity="0.55"/>
  <rect x="80" y="60" width="20" height="20" fill="#001d00" opacity="0.39"/>
  <rect x="140" y="60" width="20" height="20" fill="#001d00" opacity="0.35"/>
  <rect x="180" y="60" width="20" height="20" fill="#0d3100" opacity="0.3"/>
  <rect x="240" y="60" width="20" height="20" fill="#244427" opacity="0.29"/>
  <rect x="260" y="60" width="20" height="20" fill="#0d3100" opacity="0.17"/>
  <rect x="340" y="60" width="20" height="20" fill="#001d00" opacity="0.2"/>
  <rect x="360" y="60" width="20" height="20" fill="#001d00" opacity="0.3"/>
  <rect x="380" y="60" width="20" height="20" fill="#244427" opacity="0.21"/>
  <rect x="0" y="80" width="20" height="20" fill="#222b00" opacity="0.48"/>
  <rect x="60" y="80" width="20" height="20" fill="#0d3100" opacity="0.48"/>
  <rect x="80" y="80" width="20" height="20" fill="#001d00" opacity="0.16"/>
  <rect x="160" y="80" width="20" height="20" fill="#639c65" opacity="0.6"/>
  <rect x="220" y="80" width="20" height="20" fill="#222b00" opacity="0.22"/>
  <rect x="260" y="80" width="20" height="20" fill="#639c65" opacity="0.13"/>
  <rect x="280" y="80" width="20" height="20" fill="#222b00" opacity="0.56"/>
  <rect x="320" y="80" width="20" height="20" fill="#222b00" opacity="0.45"/>
  <rect x="340" y="80" width="20" height="20" fill="#0d3100" opacity="0.1"/>
  <rect x="0" y="100" width="20" height="20" fill="#244427" opacity="0.28"/>
  <rect x="40" y="100" width="20" height="20" fill="#639c65" opacity="0.58"/>
  <rect x="80" y="100" width="20" height="20" fill="#001d00" opacity="0.35"/>
  <rect x="100" y="100" width="20" height="20" fill="#244427" opacity="0.17"/>
  <rect x="200" y="100" width="20" height="20" fill="#639c65" opacity="0.29"/>
  <rect x="300" y="100" width="20" height="20" fill="#222b00" opacity="0.27"/>
  <rect x="320" y="100" width="20" height="20" fill="#639c65" opacity="0.1"/>
  <rect x="340" y="100" width="20" height="20" fill="#0d3100" opacity="0.43"/>
  <rect x="360" y="100" width="20" height="20" fill="#001d00" opacity="0.31"/>
  <rect x="80" y="120" width="20" height="20" fill="#0d3100" opacity="0.56"/>
  <rect x="100" y="120" width="20" height="20" fill="#001d00" opacity="0.21"/>
  <rect x="120" y="120" width="20" height="20" fill="#244427" opacity="0.37"/>
  <rect x="180" y="120" width="20" height="20" fill="#639c65" opacity="0.11"/>
  <rect x="200" y="120" width="20" height="20" fill="#001d00" opacity="0.29"/>
  <rect x="220" y="120" width="20" height="20" fill="#244427" opacity="0.13"/>
  <rect x="240" y="120" width="20" height="20" fill="#639c65" opacity="0.42"/>
  <rect x="280" y="120" width="20" height="20" fill="#244427" opacity="0.45"/>
  <rect x="320" y="120" width="20" height="20" fill="#244427" opacity="0.28"/>
  <rect x="20" y="140" width="20" height="20" fill="#244427" opacity="0.35"/>
  <rect x="60" y="140" width="20" height="20" fill="#001d00" opacity="0.55"/>
  <rect x="80" y="140" width="20" height="20" fill="#0d3100" opacity="0.59"/>
  <rect x="120" y="140" width="20" height="20" fill="#222b00" opacity="0.31"/>
  <rect x="160" y="140" width="20" height="20" fill="#0d3100" opacity="0.38"/>
  <rect x="280" y="140" width="20" height="20" fill="#244427" opacity="0.22"/>
  <rect x="360" y="140" width="20" height="20" fill="#0d3100" opacity="0.35"/>
  <rect x="0" y="160" width="20" height="20" fill="#0d3100" opacity="0.41"/>
  <rect x="20" y="160" width="20" height="20" fill="#0d3100" opacity="0.31"/>
  <rect x="40" y="160" width="20" height="20" fill="#001d00" opacity="0.46"/>
  <rect x="80" y="160" width="20" height="20" fill="#244427" opacity="0.47"/>
  <rect x="100" y="160" width="20" height="20" fill="#244427" opacity="0.3"/>
  <rect x="120" y="160" width="20" height="20" fill="#639c65" opacity="0.53"/>
  <rect x="140" y="160" width="20" height="20" fill="#639c65" opacity="0.18"/>
  <rect x="200" y="160" width="20" height="20" fill="#222b00" opacity="0.21"/>
  <rect x="300" y="160" width="20" height="20" fill="#244427" opacity="0.54"/>
  <rect x="20" y="180" width="20" height="20" fill="#639c65" opacity="0.39"/>
  <rect x="40" y="180" width="20" height="20" fill="#639c65" opacity="0.28"/>
  <rect x="80" y="180" width="20" height="20" fill="#0d3100" opacity="0.18"/>
  <rect x="100" y="180" width="20" height="20" fill="#639c65" opacity="0.12"/>
  <rect x="160" y="180" width="20" height="20" fill="#222b00" opacity="0.36"/>
  <rect x="240" y="180" width="20" height="20" fill="#001d00" opacity="0.25"/>
  <rect x="260" y="180" width="20" height="20" fill="#001d00" opacity="0.54"/>
  <rect x="300" y="180" width="20" height="20" fill="#001d00" opacity="0.48"/>
  <rect x="320" y="180" width="20" height="20" fill="#001d00" opacity="0.52"/>
  <rect x="340" y="180" width="20" height="20" fill="#001d00" opacity="0.22"/>
  <rect x="360" y="180" width="20" height="20" fill="#639c65" opacity="0.3"/>
  <rect x="0" y="200" width="20" height="20" fill="#001d00" opacity="0.14"/>
  <rect x="20" y="200" width="20" height="20" fill="#244427" opacity="0.27"/>
  <rect x="40" y="200" width="20" height="20" fill="#222b00" opacity="0.11"/>
  <rect x="80" y="200" width="20" height="20" fill="#222b00" opacity="0.44"/>
  <rect x="140" y="200" width="20" height="20" fill="#244427" opacity="0.57"/>
  <rect x="240" y="200" width="20" height="20" fill="#639c65" opacity="0.22"/>
  <rect x="260" y="200" width="20" height="20" fill="#639c65" opacity="0.49"/>
  <rect x="320" y="200" width="20" height="20" fill="#0d3100" opacity="0.43"/>
  <rect x="340" y="200" width="20" height="20" fill="#244427" opacity="0.32"/>
  <rect x="380" y="200" width="20" height="20" fill="#001d00" opacity="0.31"/>
  <rect x="20" y="220" width="20" height="20" fill="#244427" opacity="0.13"/>
  <rect x="40" y="220" width="20" height="20" fill="#001d00" opacity="0.16"/>
  <rect x="120" y="220" width="20" height="20" fill="#639c65" opacity="0.43"/>
  <rect x="140" y="220" width="20" height="20" fill="#222b00" opacity="0.56"/>
  <rect x="220" y="220" width="20" height="20" fill="#639c65" opacity="0.18"/>
  <rect x="260" y="220" width="20" height="20" fill="#222b00" opacity="0.37"/>
  <rect x="300" y="220" width="20" height="20" fill="#001d00" opacity="0.35"/>
  <rect x="0" y="240" width="20" height="20" fill="#0d3100" opacity="0.27"/>
  <rect x="20" y="240" width="20" height="20" fill="#222b00" opacity="0.44"/>
  <rect x="140" y="240" width="20" height="20" fill="#222b00" opacity="0.42"/>
  <rect x="180" y="240" width="20" height="20" fill="#001d00" opacity="0.47"/>
  <rect x="240" y="240" width="20" height="20" fill="#0d3100" opacity="0.12"/>
  <rect x="260" y="240" width="20" height="20" fill="#0d3100" opacity="0.17"/>
  <rect x="280" y="240" width="20" height="20" fill="#0d3100" opacity="0.26"/>
  <rect x="380" y="240" width="20" height="20" fill="#0d3100" opacity="0.36"/>
  <rect x="20" y="260" width="20" height="20" fill="#244427" opacity="0.19"/>
  <rect x="60" y="260" width="20" height="20" fill="#0d3100" opacity="0.35"/>
  <rect x="120" y="260" width="20" height="20" fill="#639c65" opacity="0.33"/>
  <rect x="140" y="260" width="20" height="20" fill="#244427" opacity="0.45"/>
  <rect x="160" y="260" width="20" height="20" fill="#639c65" opacity="0.48"/>
  <rect x="180" y="260" width="20" height="20" fill="#222b00" opacity="0.26"/>
  <rect x="320" y="260" width="20" height="20" fill="#639c65" opacity="0.25"/>
  <rect x="340" y="260" width="20" height="20" fill="#244427" opacity="0.29"/>
  <rect x="380" y="260" width="20" height="20" fill="#001d00" opacity="0.47"/>
  <rect x="0" y="280" width="20" height="20" fill="#222b00" opacity="0.18"/>
  <rect x="40" y="280" width="20" height="20" fill="#001d00" opacity="0.54"/>
  <rect x="60" y="280" width="20" height="20" fill="#244427" opacity="0.36"/>
  <rect x="160" y="280" width="20" height="20" fill="#222b00" opacity="0.33"/>
  <rect x="200" y="280" width="20" height="20" fill="#639c65" opacity="0.17"/>
  <rect x="240" y="280" width="20" height="20" fill="#244427" opacity="0.31"/>
  <rect x="300" y="280" width="20" height="20" fill="#639c65" opacity="0.23"/>
  <rect x="340" y="280" width="20" height="20" fill="#244427" opacity="0.21"/>
  <rect x="380" y="280" width="20" height="20" fill="#244427" opacity="0.37"/>
  <rect x="100" y="300" width="20" height="20" fill="#0d3100" opacity="0.26"/>
  <rect x="160" y="300" width="20" height="20" fill="#639c65" opacity="0.33"/>
  <rect x="180" y="300" width="20" height="20" fill="#0d3100" opacity="0.5"/>
  <rect x="40" y="320" width="20" height="20" fill="#001d00" opacity="0.53"/>
  <rect x="60" y="320" width="20" height="20" fill="#639c65" opacity="0.37"/>
  <rect x="100" y="320" width="20" height="20" fill="#639c65" opacity="0.34"/>
  <rect x="140" y="320" width="20" height="20" fill="#0d3100" opacity="0.3"/>
  <rect x="180" y="320" width="20" height="20" fill="#244427" opacity="0.12"/>
  <rect x="200" y="320" width="20" height="20" fill="#244427" opacity="0.55"/>
  <rect x="220" y="320" width="20" height="20" fill="#0d3100" opacity="0.29"/>
  <rect x="340" y="320" width="20" height="20" fill="#222b00" opacity="0.37"/>
  <rect x="360" y="320" width="20" height="20" fill="#222b00" opacity="0.16"/>
  <rect x="380" y="320" width="20" height="20" fill="#222b00" opacity="0.54"/>
  <rect x="0" y="340" width="20" height="20" fill="#0d3100" opacity="0.33"/>
  <rect x="40" y="340" width="20" height="20" fill="#001d00" opacity="0.23"/>
  <rect x="180" y="340" width="20" height="20" fill="#0d3100" opacity="0.25"/>
  <rect x="260" y="340" width="20" height="20" fill="#639c65" opacity="0.47"/>
  <rect x="280" y="340" width="20" height="20" fill="#639c65" opacity="0.29"/>
  <rect x="340" y="340" width="20" height="20" fill="#001d00" opacity="0.46"/>
  <rect x="360" y="340" width="20" height="20" fill="#639c65" opacity="0.39"/>
  <rect x="380" y="340" width="20" height="20" fill="#222b00" opacity="0.6"/>
  <rect x="0" y="360" width="20" height="20" fill="#639c65" opacity="0.17"/>
  <rect x="80" y="360" width="20" height="20" fill="#222b00" opacity="0.31"/>
  <rect x="120" y="360" width="20" height="20" fill="#639c65" opacity="0.5"/>
  <rect x="140" y="360" width="20" height="20" fill="#222b00" opacity="0.4"/>
  <rect x="160" y="360" width="20" height="20" fill="#0d3100" opacity="0.57"/>
  <rect x="180" y="360" width="20" height="20" fill="#222b00" opacity="0.33"/>
  <rect x="300" y="360" width="20" height="20" fill="#222b00" opacity="0.4"/>
  <rect x="340" y="360" width="20" height="20" fill="#639c65" opacity="0.14"/>
  <rect x="0" y="380" width="20" height="20" fill="#222b00" opacity="0.19"/>
  <rect x="20" y="380" width="20" height="20" fill="#222b00" opacity="0.59"/>
  <rect x="40" y="380" width="20" height="20" fill="#001d00" opacity="0.27"/>
  <rect x="100" y="380" width="20" height="20" fill="#244427" opacity="0.49"/>
  <rect x="120" y="380" width="20" height="20" fill="#222b00" opacity="0.38"/>
  <rect x="160" y="380" width="20" height="20" fill="#0d3100" opacity="0.29"/>
  <rect x="180" y="380" width="20" height="20" fill="#222b00" opacity="0.42"/>
  <rect x="280" y="380" width="20" height="20" fill="#222b00" opacity="0.41"/>
  <rect x="380" y="380" width="20" height="20" fill="#222b00" opacity="0.4"/>
</svg>