<svg xmlns="http://www.w3.org/2000/svg" viewBox="0 0 400 400" width="400" height="400"><rect width="400" height="400" fill="#a7e3a9"/>
  <line x1="0" y1="0" x2="400" y2="0" stroke="#224900" stroke-width="2" opacity="0.48"/>
  <line x1="0" y1="27" x2="400" y2="27" stroke="#224900" stroke-width="2" opacity="0.54"/>
  <line x1="0" y1="54" x2="400" y2="54" stroke="#224900" stroke-width="2" opacity="0.3"/>
  <line x1="0" y1="81" x2="400" y2="81" stroke="#224900" stroke-width="2" opacity="0.47"/>
  <line x1="0" y1="108" x2="400" y2="108" stroke="#224900" stroke-width="2" opacity="0.55"/>
  <line x1="0" y1="135" x2="400" y2="135" stroke="#224900" stroke-width="2" opacity="0.46"/>
  <line x1="0" y1="162" x2="400" y2="162" stroke="#224900" stroke-width="2" opacity="0.33"/>
  <line x1="0" y1="189" x2="400" y2="189" stroke="#224900" stroke-width="2" opacity="0.41"/>
  <line x1="0" y1="216" x2="400" y2="216" stroke="#224900" stroke-width="2" opacity="0.48"/>
  <line x1="0" y1="243" x2="400" y2="243" stroke="#224900" stroke-width="2" opacity="0.24"/>
  <line x1="0" y1="270" x2="400" y2="270" stroke="#224900" stroke-width="2" opacity="0.29"/>
  <line x1="0" y1="297" x2="400" y2="297" stroke="#224900" stroke-width="2" opacity="0.47"/>
  <line x1="0" y1="324" x2="400" y2="324" stroke="#224900" stroke-width="2" opacity="0.33"/>
  <line x1="0" y1="351" x2="400" y2="351" stroke="#224900" stroke-width="2" opacity="0.58"/>
  <line x1="0" y1="378" x2="400" y2="378" stroke="#224900" stroke-width="2" opacity="0.21"/>
  <line x1="0" y1="0" x2="0" y2="400" stroke="#00913e" stroke-width="2" opacity="0.54"/>
  <line x1="27" y1="0" x2="27" y2="400" stroke="#00913e" stroke-width="2" opacity="0.47"/>
  <line x1="54" y1="0" x2="54" y2="400" stroke="#00913e" stroke-width="2" opacity="0.51"/>
  <line x1="81" y1="0" x2="81" y2="400" stroke="#00913e" stroke-width="2" opacity="0.43"/>
  <line x1="108" y1="0" x2="108" y2="400" stroke="#00913e" stroke-width="2" opacity="0.4"/>
  <line x1="135" y1="0" x2="135" y2="400" stroke="#00913e" stroke-width="2" opacity="0.34"/>
  <line x1="162" y1="0" x2="162" y2="400" stroke="#00913e" stroke-width="2" opacity="0.34"/>
  <line x1="189" y1="0" x2="189" y2="400" stroke="#00913e" stroke-width="2" opacity="0.2"/>
  <line x1="216" y1="0" x2="216" y2="400" stroke="#00913e" stroke-width="2" opacity="0.44"/>
  <line x1="243" y1="0" x2="243" y2="400" stroke="#00913e" stroke-width="2" opacity="0.48"/>
  <line x1="270" y1="0" x2="270" y2="400" stroke="#00913e" stroke-width="2" opacity="0.46"/>
  <line x1="297" y1="0" x2="297" y2="400" stroke="#00913e" stroke-width="2" opacity="0.46"/>
  <line x1="324" y1="0" x2="324" y2="400" stroke="#00913e" stroke-width="2" opacity="0.52"/>
  <line x1="351" y1="0" x2="351" y2="400" stroke="#00913e" stroke-width="2" opacity="0.47"/>
  <line x1="378" y1="0" x2="378" y2="400" stroke="#00913e" stroke-width="2" opacity="0.35"/>
  <circle cx="275" cy="259" r="73" fill="#ffa7f0" opacity="0.5"/>
  <rect x="127" y="175" width="124" height="101" fill="#b477b1" opacity="0.4"/>
</svg>